<?xml version="1.0" encoding="utf-8"?>
<!-- Generator: Adobe Illustrator 24.2.1, SVG Export Plug-In . SVG Version: 6.00 Build 0)  -->
<svg version="1.1" id="Layer_1" xmlns="http://www.w3.org/2000/svg" xmlns:xlink="http://www.w3.org/1999/xlink" x="0px" y="0px"
	 viewBox="0 0 540.4 132.1" style="enable-background:new 0 0 540.4 132.1;" xml:space="preserve">
<style type="text/css">
	.st0{fill:#212121;}
	.st1{fill:#F40000;}
</style>
<g>
	<path class="st0" d="M139.4,20.1L116.2,93H96L81.5,60.4L67.4,93H47.2L23.4,20.1h26.3l11,38.3l17.2-38h6.8l18.2,38.4l10.9-38.6
		H139.4z"/>
	<path class="st0" d="M223.4,20.1v72.9H204l-2.2-5.2c-6,4.8-13.5,7.6-22,7.6c-22.3,0-38.2-16.3-38.2-38.9
		c0-22.6,15.9-38.6,38.2-38.6c8.6,0,16.3,2.9,22.3,7.8l2.6-5.6L223.4,20.1z M199.5,56.5c0-9.5-6.9-16.6-16.3-16.6
		c-9.5,0-16.3,7.1-16.3,16.6c0,9.5,6.9,16.6,16.3,16.6S199.5,66.1,199.5,56.5z"/>
	<path class="st0" d="M314.6,20.1v64.8c0,22.9-15,37.1-39.1,37.1c-20.7,0-35.2-10.4-38.5-27.7h24.2c1.7,4.9,8,7.5,14.1,7.5
		c8.4,0,15.2-5.3,15.2-14v-2.2c-5.5,3.5-12,5.5-19,5.5c-20.9,0-36.4-15.5-36.4-36.6c0-20.8,15.5-36.7,36.4-36.7
		c8.8,0,16.8,3.2,23,8.4l3.2-6.1L314.6,20.1z M275.6,70.4c9,0,15.5-6.7,15.5-16c0-9.2-6.5-15.9-15.5-15.9c-9,0-15.6,6.7-15.6,15.9
		C260.1,63.7,266.5,70.4,275.6,70.4L275.6,70.4z"/>
	<path class="st0" d="M405.6,55.9c0,2.2-0.2,4.4-0.5,6.6h-54.1c1.6,8.4,7,12.7,14.9,12.7c5.9,0,10.8-2.6,13.2-6.8h25
		c-5.1,16.6-19.9,27-38.2,27c-22.7,0-39.6-16.6-39.6-38.9c0-22.3,16.7-38.8,39.6-38.8C389.3,17.7,405.6,34.5,405.6,55.9L405.6,55.9z
		 M351.4,48.6h29.5c-2.2-7.3-7.5-11.2-15-11.2C358.5,37.4,353.4,41.4,351.4,48.6z"/>
	<path class="st0" d="M464.4,19.8v23h-9.7c-8.9,0-12.6,3.9-12.6,13.2V93H417V20.1h16.8l3.9,8.1c5.1-5.9,11.4-8.4,20.1-8.4H464.4z"/>
	<path class="st1" d="M521.4,19.8v23h-9.7c-8.9,0-12.6,3.9-12.6,13.2V93h-25.1V20.1h16.8l3.9,8.1c5.1-5.9,11.4-8.4,20.1-8.4H521.4z"
		/>
</g>
</svg>
