<?xml version="1.0" encoding="utf-8"?>
<!-- Generator: Adobe Illustrator 24.2.1, SVG Export Plug-In . SVG Version: 6.00 Build 0)  -->
<svg version="1.1" id="Layer_1" xmlns="http://www.w3.org/2000/svg" xmlns:xlink="http://www.w3.org/1999/xlink" x="0px" y="0px"
	 viewBox="0 0 100 100" style="enable-background:new 0 0 100 100;" xml:space="preserve">
<style type="text/css">
	.st0{fill:#FFFFFF;}
	.st1{fill:#F40000;}
	.st2{fill-rule:evenodd;clip-rule:evenodd;fill:#910000;}
	.st3{fill-rule:evenodd;clip-rule:evenodd;fill:#A80000;}
	.st4{fill-rule:evenodd;clip-rule:evenodd;fill:#BF0000;}
	.st5{fill-rule:evenodd;clip-rule:evenodd;fill:#F40000;}
</style>
<g>
	<path class="st0" d="M24.3,73.5l-4.5,14h-3.9l-2.8-6.3l-2.7,6.3H6.5L2,73.5h5l2.1,7.3l3.3-7.3h1.3l3.5,7.4l2.1-7.4L24.3,73.5
		L24.3,73.5z"/>
	<path class="st0" d="M40.4,73.5v14h-3.7l-0.4-1c-1.1,0.9-2.6,1.5-4.2,1.5c-4.3,0-7.3-3.1-7.3-7.5c0-4.3,3-7.4,7.3-7.4
		c1.6,0,3.1,0.5,4.3,1.5l0.5-1.1H40.4z M35.8,80.5c0-1.8-1.3-3.2-3.1-3.2c-1.8,0-3.1,1.4-3.1,3.2c0,1.8,1.3,3.2,3.1,3.2
		C34.5,83.7,35.8,82.3,35.8,80.5z"/>
	<path class="st0" d="M57.9,73.5v12.4c0,4.4-2.9,7.1-7.5,7.1c-4,0-6.8-2-7.4-5.3h4.7c0.3,0.9,1.5,1.4,2.7,1.4c1.6,0,2.9-1,2.9-2.7
		V86c-1,0.7-2.3,1-3.6,1c-4,0-7-3-7-7c0-4,3-7,7-7c1.7,0,3.2,0.6,4.4,1.6l0.6-1.2H57.9z M50.4,83.1c1.7,0,3-1.3,3-3.1
		c0-1.8-1.3-3-3-3c-1.7,0-3,1.3-3,3C47.4,81.8,48.7,83.1,50.4,83.1L50.4,83.1z"/>
	<path class="st0" d="M75.3,80.3c0,0.4,0,0.8-0.1,1.3H64.8c0.3,1.6,1.3,2.4,2.9,2.4c1.1,0,2.1-0.5,2.5-1.3H75
		c-1,3.2-3.8,5.2-7.3,5.2c-4.4,0-7.6-3.2-7.6-7.5c0-4.3,3.2-7.4,7.6-7.4C72.2,73,75.3,76.2,75.3,80.3L75.3,80.3z M64.9,78.9h5.6
		c-0.4-1.4-1.4-2.2-2.9-2.2C66.3,76.8,65.3,77.6,64.9,78.9z"/>
	<path class="st0" d="M86.6,73.4v4.4h-1.9c-1.7,0-2.4,0.7-2.4,2.5v7.1h-4.8v-14h3.2l0.7,1.6c1-1.1,2.2-1.6,3.9-1.6H86.6z"/>
	<path class="st1" d="M97.5,73.4v4.4h-1.9c-1.7,0-2.4,0.7-2.4,2.5v7.1h-4.8v-14h3.2l0.7,1.6c1-1.1,2.2-1.6,3.9-1.6H97.5z"/>
</g>
<g>
	<polygon class="st2" points="31.7,31.9 38.4,31.9 45.4,46.3 38.8,46.3 	"/>
	<polygon class="st3" points="45.3,28.2 51.9,28.2 45.4,46.3 38.8,46.3 	"/>
	<polygon class="st4" points="45.3,28.2 51.9,28.2 59.5,46.3 52.9,46.3 	"/>
	<polygon class="st5" points="59.5,46.3 52.9,46.3 60.6,24.2 67.2,24.2 	"/>
	<path class="st0" d="M49.2,65.2c-16.6,0-30.1-13.5-30.1-30.1S32.6,5,49.2,5s30.1,13.5,30.1,30.1S65.8,65.2,49.2,65.2z M49.2,10.6
		c-13.5,0-24.5,11-24.5,24.5s11,24.5,24.5,24.5s24.5-11,24.5-24.5C73.7,21.6,62.7,10.6,49.2,10.6z"/>
</g>
</svg>
