<?xml version="1.0" encoding="utf-8"?>
<!-- Generator: Adobe Illustrator 24.2.3, SVG Export Plug-In . SVG Version: 6.00 Build 0)  -->
<svg version="1.1" id="Capa_1" xmlns="http://www.w3.org/2000/svg" xmlns:xlink="http://www.w3.org/1999/xlink" x="0px" y="0px"
	 viewBox="0 0 601 596.7" style="enable-background:new 0 0 601 596.7;" xml:space="preserve">
<style type="text/css">
	.st0{opacity:0.25;}
	.st1{fill:#FFFFFF;}
	.st2{opacity:0.1;}
	.st3{fill:#EF0000;}
	.st4{fill:#EF6565;}
	.st5{fill:#F40000;stroke:#FFFFFF;stroke-width:10;stroke-miterlimit:10;}
	.st6{fill:#EF6565;stroke:#FFFFFF;stroke-width:10;stroke-miterlimit:10;}
</style>
<g>
	<g class="st0">
		<path class="st1" d="M331.1,46.2c-94.4,27.7-75.4,93.6-86,166.5c-13.2,91.1-70.1,44.4-135.5,93.5
			c-113.1,85-30.9,272.6,109.5,244.1c74.6-15.1,89.8-70.1,120.2-128.8c39.3-76,104.6-55.3,163.1-104.9
			C621,216.1,464.9,6.8,331.1,46.2z"/>
	</g>
	<g>
		<g class="st2">
			<circle class="st3" cx="300.5" cy="312.3" r="47.5"/>
		</g>
		<g>
			<circle class="st4" cx="300.5" cy="288.3" r="47.5"/>
			<path class="st1" d="M316.2,282.2H304v-23.9c0-1.1-1.5-1.5-2-0.5l-18.1,35.1c-0.4,0.7,0.1,1.5,0.9,1.5H297v23.9
				c0,1.1,1.5,1.5,2,0.5l18.1-35.1C317.5,283,317,282.2,316.2,282.2z"/>
		</g>
		<g>
			<g>
				<path class="st3" d="M318.4,239c-2.6-0.9-5.5,0.4-6.4,3s0.4,5.5,3,6.4c16.7,6.1,28,22.1,28,39.9c0,23.4-19.1,42.5-42.5,42.5
					S258,311.7,258,288.3c0-17.6,11-33.5,27.5-39.7c2.6-1,3.9-3.9,2.9-6.4c-1-2.6-3.9-3.9-6.4-2.9c-20.3,7.7-33.9,27.4-33.9,49.1
					c0,28.9,23.5,52.5,52.5,52.5s52.5-23.5,52.5-52.5C353,266.3,339.1,246.5,318.4,239L318.4,239z"/>
			</g>
		</g>
		<path class="st3" d="M163.2,116.5c-1.3,0-2.6-0.5-3.5-1.5c-2-2-2-5.1,0-7.1l3.3-3.3l-5-3.2c-1.3-0.8-2.1-2.2-2.3-3.7
			c-0.2-1.5,0.4-3,1.4-4.1l7.7-7.7c2-2,5.1-2,7.1,0s2,5.1,0,7.1l-3.3,3.3l5,3.2c1.3,0.8,2.1,2.2,2.3,3.7s-0.4,3-1.4,4.1l-7.7,7.7
			C165.7,116.1,164.4,116.5,163.2,116.5z"/>
		<path class="st4" d="M438.3,385.4c-1.3,0-2.6-0.5-3.5-1.5c-2-2-2-5.1,0-7.1l3.3-3.3l-5-3.2c-1.3-0.8-2.1-2.2-2.3-3.7
			s0.4-3,1.4-4.1l7.7-7.7c2-2,5.1-2,7.1,0s2,5.1,0,7.1l-3.3,3.3l5,3.2c1.3,0.8,2.1,2.2,2.3,3.7s-0.4,3-1.4,4.1l-7.7,7.7
			C440.9,384.9,439.6,385.4,438.3,385.4z"/>
		<path class="st4" d="M176.3,221.6c-2.8,0-5-2.2-5-5c0-3.3-2.7-6-6-6c-2.8,0-5-2.2-5-5s2.2-5,5-5c3.3,0,6-2.7,6-6c0-2.8,2.2-5,5-5
			s5,2.2,5,5c0,3.3,2.7,6,6,6c2.8,0,5,2.2,5,5s-2.2,5-5,5c-3.3,0-6,2.7-6,6C181.3,219.3,179,221.6,176.3,221.6z"/>
		<path class="st4" d="M197.7,490.4c-2.8,0-5-2.2-5-5c0-3.3-2.7-6-6-6c-2.8,0-5-2.2-5-5s2.2-5,5-5c3.3,0,6-2.7,6-6c0-2.8,2.2-5,5-5
			s5,2.2,5,5c0,3.3,2.7,6,6,6c2.8,0,5,2.2,5,5s-2.2,5-5,5c-3.3,0-6,2.7-6,6C202.7,488.2,200.5,490.4,197.7,490.4z"/>
		<path class="st4" d="M500.3,317.7c-2.8,0-5-2.2-5-5c0-3.3-2.7-6-6-6c-2.8,0-5-2.2-5-5s2.2-5,5-5c3.3,0,6-2.7,6-6c0-2.8,2.2-5,5-5
			s5,2.2,5,5c0,3.3,2.7,6,6,6c2.8,0,5,2.2,5,5s-2.2,5-5,5c-3.3,0-6,2.7-6,6C505.3,315.5,503.1,317.7,500.3,317.7z"/>
	</g>
</g>
<path class="st1" d="M300.4,511c-26.8,0-51.6-23.7-69.9-66.8c-17.7-41.7-27.5-97.1-27.5-156s9.8-114.2,27.5-156
	c18.3-43.1,43.1-66.8,69.9-66.8c26.8,0,51.6,23.7,69.9,66.8c17.7,41.7,27.5,97.1,27.5,156s-9.8,114.2-27.5,156
	C352,487.2,327.2,511,300.4,511z M300.4,75.3c-22.2,0-44.3,22.1-60.7,60.8c-17.2,40.5-26.7,94.5-26.7,152.1s9.5,111.5,26.7,152.1
	c16.4,38.6,38.5,60.8,60.7,60.8s44.3-22.1,60.7-60.8c17.2-40.5,26.7-94.5,26.7-152.1s-9.5-111.5-26.7-152.1
	C344.7,97.5,322.6,75.3,300.4,75.3z"/>
<path class="st1" d="M425.3,428.3c-7.8,0-16-0.5-24.8-1.6c-45-5.5-97.9-24.8-148.8-54.2c-51-29.4-94.1-65.6-121.4-101.8
	c-28.2-37.4-36.3-70.8-22.9-94c13.4-23.2,46.4-32.9,92.9-27.1c45,5.5,97.9,24.8,148.8,54.2c51,29.4,94.1,65.6,121.4,101.8
	c28.2,37.4,36.3,70.8,22.9,94C482.5,418.4,458.7,428.3,425.3,428.3z M175.8,158c-29.6,0-50.8,8.3-59.8,23.7
	c-11.1,19.2-3,49.5,22.3,83c26.5,35.2,68.5,70.4,118.4,99.1c49.8,28.8,101.3,47.6,145,52.9c41.6,5.1,71.9-3,83-22.2s3-49.5-22.3-83
	c-26.5-35.2-68.5-70.4-118.4-99.1c-49.8-28.8-101.3-47.6-145-52.9C190.8,158.5,183.1,158,175.8,158z"/>
<path class="st1" d="M175.2,428.7c-33.4,0-57.2-9.9-68.1-28.7c-13.4-23.2-5.3-56.6,22.9-94c27.3-36.2,70.4-72.3,121.4-101.8
	s103.8-48.7,148.8-54.2c46.5-5.7,79.4,3.9,92.9,27.1c13.4,23.2,5.3,56.6-22.9,94c-27.3,36.2-70.4,72.3-121.4,101.8
	c-51,29.4-103.8,48.7-148.8,54.2C191.2,428.2,182.9,428.7,175.2,428.7z M424.6,158.4c-7.3,0-15,0.5-23.2,1.5
	c-43.7,5.4-95.2,24.2-145,52.9s-91.9,64-118.4,99.1c-25.2,33.5-33.4,63.7-22.3,83c11.1,19.2,41.3,27.3,83,22.2
	c43.7-5.4,95.2-24.2,145-53c49.8-28.8,91.9-64,118.4-99.1c25.2-33.5,33.4-63.7,22.3-83C475.5,166.7,454.2,158.4,424.6,158.4z"/>
<circle class="st5" cx="342.9" cy="409.1" r="22.4"/>
<circle class="st5" cx="110.3" cy="398.1" r="22.4"/>
<circle class="st6" cx="353.1" cy="110.1" r="22.4"/>
</svg>
