<?xml version="1.0" encoding="utf-8"?>
<!-- Generator: Adobe Illustrator 24.2.1, SVG Export Plug-In . SVG Version: 6.00 Build 0)  -->
<svg version="1.1" id="Capa_1" xmlns="http://www.w3.org/2000/svg" xmlns:xlink="http://www.w3.org/1999/xlink" x="0px" y="0px"
	 viewBox="0 0 621.3 603" style="enable-background:new 0 0 621.3 603;" xml:space="preserve">
<style type="text/css">
	.st0{opacity:0.15;fill:#686868;enable-background:new    ;}
	.st1{fill:#1E1E1E;}
	.st2{fill:#F40000;}
	.st3{fill:#FF6C6C;}
	.st4{opacity:0.1;fill:#686868;enable-background:new    ;}
	.st5{fill:#3F3F3F;}
	.st6{fill:#FFFEFD;}
	.st7{fill:#3A3A3A;}
	.st8{fill:#FFFFFF;}
	.st9{fill:#FF4D4D;}
	.st10{fill:#F25151;}
</style>
<g>
	<path class="st0" d="M521,172C520.3,82,389.1,64.6,299.1,64c-91.8-0.6-166.5,73.7-166.5,165.4c0,7.6,0.5,15.1,1.5,22.4
		c4,29.7,6.2,56.8-19.2,72.9c-35.6,22.7-51,58-51,89.4C64,487,156.6,542,298,542s256-59.1,256-132c0-31.4-21.3-60.3-56.9-83
		C468.5,284.8,521,231.4,521,172z"/>
	<g>
		<g>
			<path class="st1" d="M489.4,397.9c-1.3,0-2.6-0.5-3.5-1.5l-11-11c-2-2-2-5.1,0-7.1l11-11c2-2,5.1-2,7.1,0l11,11c2,2,2,5.1,0,7.1
				l-11,11C491.9,397.4,490.6,397.9,489.4,397.9z M485.4,381.9l3.9,3.9l3.9-3.9l-3.9-3.9L485.4,381.9z"/>
		</g>
		<g>
			<path class="st2" d="M468.5,128.5c-1.3,0-2.6-0.5-3.5-1.5l-11-11c-2-2-2-5.1,0-7.1l11-11c2-2,5.1-2,7.1,0l11,11c2,2,2,5.1,0,7.1
				l-11,11C471,128,469.7,128.5,468.5,128.5z M464.5,112.5l3.9,3.9l3.9-3.9l-3.9-3.9L464.5,112.5z"/>
		</g>
		<g>
			<path class="st1" d="M106.9,230.3c-1.3,0-2.6-0.5-3.5-1.5l-11.3-11.3c-0.9-0.9-1.5-2.2-1.5-3.5s0.5-2.6,1.5-3.5l11.3-11.3
				c0.9-0.9,2.2-1.5,3.5-1.5c1.3,0,2.6,0.5,3.5,1.5l11.3,11.3c2,2,2,5.1,0,7.1l-11.3,11.3C109.5,229.8,108.2,230.3,106.9,230.3z
				 M102.7,214l4.2,4.2l4.2-4.2l-4.2-4.2L102.7,214z"/>
		</g>
		<g>
			<path class="st3" d="M468.5,345.9c-7.2,0-13-5.8-13-13s5.8-13,13-13s13,5.8,13,13S475.6,345.9,468.5,345.9z M468.5,329.9
				c-1.7,0-3,1.4-3,3s1.4,3,3,3s3-1.4,3-3S470.1,329.9,468.5,329.9z"/>
		</g>
		<g>
			<path class="st2" d="M133.2,297.1c-7.2,0-13-5.8-13-13s5.8-13,13-13s13,5.8,13,13S140.4,297.1,133.2,297.1z M133.2,281.1
				c-1.7,0-3,1.4-3,3s1.4,3,3,3s3-1.4,3-3S134.9,281.1,133.2,281.1z"/>
		</g>
		<g>
			<g>
				<g>
					<path class="st4" d="M178.8,512.7c0,11.5,9.3,20.8,20.8,20.8h206.1c11.5,0,20.8-9.3,20.8-20.8V120.3c0-11.5-9.3-20.8-20.8-20.8
						H199.6c-11.5,0-20.8,9.3-20.8,20.8V512.7z"/>
					<path class="st5" d="M426.6,93.3v392.3c0,11.5-9.3,20.8-20.8,20.8H199.6c-11.5,0-20.8-9.3-20.8-20.8V93.3
						c0-11.5,9.3-20.8,20.8-20.8h206.1C417.3,72.5,426.6,81.8,426.6,93.3L426.6,93.3z"/>
					<path class="st6" d="M178.8,265v220.7c0,11.5,9.3,20.8,20.8,20.8h206.1c11.5,0,20.8-9.3,20.8-20.8V265H178.8z"/>
					<path class="st7" d="M370.2,100.5l8.5-28h-152l8.5,28c1.3,4.2,5.2,7.1,9.6,7.1h115.9C365.1,107.6,369,104.7,370.2,100.5z"/>
					<path class="st2" d="M426.6,332c2.8,0,5-2.2,5-5V93.3c0-14.2-11.6-25.8-25.8-25.8h-27.1c-2.2,0-4.1,1.4-4.8,3.6l-8.5,28
						c-0.6,2.1-2.6,3.6-4.8,3.6H244.7c-2.2,0-4.1-1.4-4.8-3.6l-6.5-21.6H345c2.8,0,5-2.2,5-5c0-2.8-2.2-5-5-5H199.6
						c-14.2,0-25.8,11.6-25.8,25.8v392.3c0,14.2,11.6,25.8,25.8,25.8h206.1c14.2,0,25.8-11.6,25.8-25.8V361c0-2.8-2.2-5-5-5
						s-5,2.2-5,5v124.7c0,8.7-7.1,15.8-15.8,15.8H199.6c-8.7,0-15.8-7.1-15.8-15.8V93.3c0-8.7,7.1-15.8,15.8-15.8H223l7.4,24.5
						c1.9,6.4,7.7,10.7,14.4,10.7h115.9c6.7,0,12.4-4.3,14.4-10.7l7.4-24.5h23.4c8.7,0,15.8,7.1,15.8,15.8V327
						C421.6,329.8,423.8,332,426.6,332L426.6,332z"/>
				</g>
			</g>
			<g>
				<circle class="st8" cx="258.7" cy="90.1" r="4.9"/>
			</g>
			<g>
				<circle class="st8" cx="275" cy="90.1" r="4.9"/>
			</g>
			<g>
				<path class="st8" d="M343.3,94.9h-37.2c-2.6,0-4.7-2.1-4.7-4.7c0-2.6,2.1-4.7,4.7-4.7h37.2c2.6,0,4.7,2.1,4.7,4.7
					C348,92.8,345.9,94.9,343.3,94.9z"/>
			</g>
		</g>
		<g>
			<g>
				<path class="st8" d="M248.1,212.6h109.2c2.6,0,4.7,2.1,4.7,4.7s-2.1,4.7-4.7,4.7H248.1c-2.6,0-4.7-2.1-4.7-4.7
					C243.4,214.7,245.5,212.6,248.1,212.6L248.1,212.6z"/>
			</g>
			<g>
				<path class="st8" d="M258.6,231.4h88.2c2.6,0,4.7,2.1,4.7,4.7s-2.1,4.7-4.7,4.7h-88.2c-2.6,0-4.7-2.1-4.7-4.7
					S256,231.4,258.6,231.4L258.6,231.4z"/>
			</g>
			<g>
				<path class="st8" d="M278.1,134h49.2c2.6,0,4.7,2.1,4.7,4.7s-2.1,4.7-4.7,4.7h-49.2c-2.6,0-4.7-2.1-4.7-4.7S275.5,134,278.1,134
					L278.1,134z"/>
			</g>
		</g>
		<g>
			<g>
				<path class="st1" d="M228.6,318.2c-1.4,0-2.9-0.6-3.8-1.8c-1.8-2.1-1.5-5.3,0.6-7c19-15.8,43.1-24.6,68-24.6
					c16.9,0,33.8,4.1,48.9,11.9c5.1,2.6,9.9,5.7,14.5,9c2.2,1.6,2.7,4.8,1,7c-1.6,2.2-4.8,2.7-7,1c-4.1-3.1-8.5-5.8-13.1-8.2
					c-13.6-7.1-28.9-10.8-44.3-10.8c-22.5,0-44.4,7.9-61.5,22.2C230.9,317.8,229.7,318.2,228.6,318.2z"/>
			</g>
			<g>
				<path class="st1" d="M380,337.6C380,337.6,380.1,337.6,380,337.6c1.9-1.7,2.3-4.5,0.9-6.5c-1.4-2.1-2.9-4.2-4.5-6.2
					c-1.6-2.1-4.6-2.7-6.8-1.3c-2.5,1.6-3,5-1.2,7.3c1.5,1.9,2.9,3.8,4.3,5.8C374.4,339.2,377.8,339.6,380,337.6L380,337.6z"/>
			</g>
			<g>
				<path class="st1" d="M365.3,433.2c-0.8,0-1.6-0.2-2.3-0.6c-2.5-1.3-3.4-4.3-2.1-6.7c19.3-37.2,4.8-83.2-32.5-102.5
					c-10.8-5.6-22.9-8.6-35.1-8.6c-24.2,0-46.3,11-60.8,30.3c-1.7,2.2-4.8,2.7-7,1s-2.7-4.8-1-7c16.3-21.8,41.4-34.3,68.8-34.3
					c13.8,0,27.5,3.3,39.7,9.7c42.1,21.9,58.6,73.9,36.7,116C368.8,432.2,367.1,433.2,365.3,433.2L365.3,433.2z"/>
			</g>
			<g>
				<path class="st9" d="M354.4,457.6c-1.2,0-2.4-0.4-3.3-1.3c-17-15.3-8.6-38.2-8.2-39.1c0.1-0.2,0.1-0.4,0.2-0.5
					c14.2-27.4,3.5-61.3-23.9-75.6c-7.9-4.1-16.9-6.3-25.8-6.3c-21,0-40.1,11.6-49.8,30.2c-2.8,5.4-6.6,10.8-11.3,16.1
					c-1.8,2.1-5,2.2-7.1,0.4c-2.1-1.8-2.2-5-0.4-7.1c4.1-4.6,7.4-9.3,9.9-14c11.4-22,33.9-35.6,58.6-35.6c10.6,0,21.1,2.6,30.5,7.4
					c32.2,16.7,44.9,56.5,28.3,88.8c-0.7,2.1-5.6,17.8,5.6,27.9c2.1,1.8,2.2,5,0.4,7.1C357.1,457,355.8,457.6,354.4,457.6
					L354.4,457.6z"/>
			</g>
			<g>
				<path class="st1" d="M334.4,474.8c-1.2,0-2.5-0.5-3.5-1.4c-22.2-21.2-13.4-52.4-5.5-66c9.1-17.6,2.2-39.4-15.4-48.5
					c-5.1-2.7-10.9-4.1-16.6-4.1c-12.5,0-23.9,6.3-30.5,16.9c-1.5,2.3-4.6,3-6.9,1.6c-2.3-1.5-3-4.6-1.6-6.9
					c8.5-13.5,23-21.5,39-21.5c7.3,0,14.7,1.8,21.2,5.2c22.5,11.7,31.4,39.6,19.7,62.1c0,0.1-0.1,0.1-0.1,0.2s-4.8,8.5-6.6,19.6
					c-2.3,14,1.2,25.6,10.4,34.3c2,1.9,2.1,5.1,0.2,7.1C337,474.2,335.7,474.8,334.4,474.8L334.4,474.8z"/>
			</g>
			<g>
				<path class="st1" d="M228.6,410.2c-1.5,0-2.9-0.6-3.9-1.9c-1.7-2.1-1.4-5.3,0.8-7c6.1-4.9,11.5-10.2,16.2-15.7
					c1.8-2.1,4.9-2.4,7-0.6s2.4,4.9,0.6,7c-5.1,6-11,11.8-17.6,17.1C230.8,409.8,229.7,410.2,228.6,410.2L228.6,410.2z"/>
			</g>
			<g>
				<path class="st1" d="M312.4,478.5c-1.6,0-3.3-0.8-4.2-2.3c-3.1-4.8-5.5-11.3-7.2-16.5c-4,3.8-8.2,7.5-12.5,11
					c-2.1,1.7-5.3,1.4-7-0.7s-1.4-5.3,0.7-7c6.2-5.1,12.2-10.5,17.7-16.2c1.3-1.3,3.2-1.8,4.9-1.3c1.8,0.5,3.1,1.9,3.5,3.7
					c0,0.1,3.4,14.3,8.2,21.8c1.5,2.3,0.8,5.4-1.5,6.9C314.2,478.3,313.3,478.5,312.4,478.5L312.4,478.5z"/>
			</g>
			<g>
				<path class="st1" d="M261.8,465.3c-1.5,0-3.1-0.7-4-2.1c-1.6-2.2-1.1-5.4,1.1-7c15.1-11,36.1-29.8,50.3-57.3
					c4.5-8.7,1.1-19.5-7.6-24c-2.5-1.3-5.4-2-8.2-2c-6.7,0-12.7,3.7-15.8,9.6c-13.6,26.3-36.9,43.2-46.2,49.3
					c-2.3,1.5-5.4,0.8-6.9-1.5s-0.9-5.4,1.5-6.9c8.7-5.7,30.3-21.4,42.8-45.5c4.8-9.2,14.2-15,24.7-15c4.4,0,8.9,1.1,12.8,3.1
					c13.6,7.1,18.9,23.9,11.9,37.5c-15.1,29.2-37.3,49.1-53.3,60.8C263.9,465,262.8,465.3,261.8,465.3L261.8,465.3z"/>
			</g>
			<g>
				<path class="st9" d="M233.6,457.6c-1.8,0-3.5-0.9-4.4-2.6c-1.3-2.4-0.4-5.5,2-6.8c0.6-0.3,39.5-22.1,60.5-62.5
					c1.3-2.5,4.3-3.4,6.7-2.1c2.5,1.3,3.4,4.3,2.1,6.7C278.1,433.5,237.7,456,236,457C235.2,457.4,234.4,457.6,233.6,457.6z"/>
			</g>
		</g>
		<path class="st10" d="M350.8,195.7h-96.1c-1.7,0-3-1.3-3-3v-27.2c0-1.7,1.3-3,3-3h96.1c1.7,0,3,1.3,3,3v27.2
			C353.8,194.3,352.4,195.7,350.8,195.7z"/>
		<circle class="st9" cx="386" cy="265" r="16.3"/>
	</g>
</g>
<circle class="st8" cx="267.3" cy="179.6" r="9.4"/>
<circle class="st8" cx="291.9" cy="179.5" r="9.4"/>
<circle class="st8" cx="315.6" cy="179.7" r="9.4"/>
<circle class="st8" cx="338.9" cy="179.6" r="9.4"/>
</svg>
