<?xml version="1.0" encoding="utf-8"?>
<!-- Generator: Adobe Illustrator 24.2.3, SVG Export Plug-In . SVG Version: 6.00 Build 0)  -->
<svg version="1.1" id="Capa_1" xmlns="http://www.w3.org/2000/svg" xmlns:xlink="http://www.w3.org/1999/xlink" x="0px" y="0px"
	 viewBox="0 0 605.1 600.8" style="enable-background:new 0 0 605.1 600.8;" xml:space="preserve">
<style type="text/css">
	.st0{opacity:0.25;fill:#FFFFFF;enable-background:new    ;}
	.st1{opacity:0.1;fill:#EF0000;enable-background:new    ;}
	.st2{fill:#E0E0E0;}
	.st3{opacity:0.51;fill:#EF6565;enable-background:new    ;}
	.st4{fill:#999999;}
	.st5{fill:#FFFFFF;}
	.st6{fill:#B5B5B5;}
	.st7{fill:#FFDCDC;}
	.st8{fill:#EF0000;}
	.st9{fill:#EF6565;}
</style>
<g>
	<path class="st0" d="M459.4,171.6c-28.9-7.4-24.9-41.3,3-51.8l21.5-12.3c9.2-3.5,31.1-28.8-2.5-35.3c-42.5-8.5-118.3-10.7-204.6-13
		C216.9,57.5,55.3,55.3,48.4,133c-11,123.5,62.6,13.1,80.6,105.2c18,92-187.6,172,36.8,261.8l227.9,45.4c8.8,4.7,17.5-6.5,10.7-13.9
		c-8.5-9.3-17.8-19.7-27-30.8c-5.8-7-4.3-17.5,3.3-22.4l9.3-6.1c4.3-2.8,115.3-99.4,150.6-193.3
		C559.7,209.2,515.3,185.9,459.4,171.6L459.4,171.6z"/>
	<path class="st1" d="M490.9,199.6l-90.1-28.9l0,0l0,0l-36.4,11.7c-10.8-22.8-33.9-38.6-60.7-38.6s-49.9,15.8-60.6,38.6l-36.4-11.7
		l0,0l0,0l-90.2,28.9c-4.1,1.3-6.9,5.2-6.9,9.5v286.6c0,6.8,6.6,11.6,13.1,9.5l84-27l0,0l0,0l97.1,31.1l97.1-31.1l0,0l0,0l84,27
		c6.5,2.1,13.1-2.7,13.1-9.5V209.1C497.8,204.8,495,200.9,490.9,199.6L490.9,199.6z"/>
	<g>
		<g>
			<g>
				<g>
					<path class="st2" d="M303.7,177.8v307.6l-97.1-31.1V146.7L303.7,177.8z"/>
					<path class="st3" d="M303.7,296.9v17.3c-24.8-1.4-58.3-14.3-57.3-19C247.5,290.5,272.9,294.7,303.7,296.9L303.7,296.9z"/>
					<path class="st4" d="M303.7,361.3v124.1l-97.1-31.1V294.1c0-8.2,9.4-12.9,16-8l18.9,14.1c1.6,1.2,2.6,3.2,2.6,5.2v16
						c0,3.1,2.2,5.8,5.3,6.4l15.3,3c2.8,0.6,5,2.9,5.2,5.8l1.3,13.2c0.3,2.8,2.4,5.2,5.2,5.8L303.7,361.3z"/>
					<g>
						<path class="st5" d="M206.6,454.2l-84,27c-6.5,2.1-13.1-2.7-13.1-9.5V185.1c0-4.3,2.8-8.2,6.9-9.5l90.1-28.9L206.6,454.2
							L206.6,454.2z"/>
						<g>
							<path class="st5" d="M400.8,146.7v307.6l-97.1,31.1V177.8L400.8,146.7z"/>
							<path class="st6" d="M400.8,376.6v77.6l-97.1,31.2V361.3l37.1-15c2.5-1,4.1-3.4,4.1-6.1v-21.4c0-1.8,0.8-3.6,2.1-4.8l5.4-5
								c2.7-2.5,6.9-2.3,9.3,0.5l18.1,20.4c1.1,1.2,1.6,2.7,1.6,4.3v20.4c0,1.7,0.7,3.4,1.9,4.6L400.8,376.6z"/>
							<path class="st2" d="M400.8,454.2l84,27c6.5,2.1,13.1-2.7,13.1-9.5V185.1c0-4.3-2.8-8.2-6.9-9.5l-90.1-28.9L400.8,454.2
								L400.8,454.2z"/>
						</g>
					</g>
					<path class="st7" d="M303.7,296.9v17.3c24.8-1.4,58.3-14.3,57.3-19C360,290.5,334.5,294.7,303.7,296.9L303.7,296.9z"/>
					<path class="st6" d="M206.6,294.3v126.2l-18.3-13.9c-2-1.5-2.9-4-2.5-6.4l7-36.5c0.4-2.3-0.4-4.6-2.1-6.1l-8.9-8
						c-2.4-2.1-5.9-2.2-8.4-0.3l-10.3,8c-2.8,2.2-6.8,1.7-9-1L144,344.2c-1.4-1.7-1.9-3.9-1.3-6l5.2-17.7c0.4-1.3,1.2-2.5,2.3-3.4
						l40.5-30.9C197.1,281.4,206.6,286.1,206.6,294.3L206.6,294.3z"/>
					<path class="st4" d="M468.3,403.7v8.1c0,1.9-0.9,3.8-2.4,5l-12.8,10.6c-2.3,1.9-5.5,2-7.9,0.4l-12-8.3
						c-1.7-1.2-2.7-3.1-2.8-5.1c-0.2-4.9-5.5-7.9-9.8-5.4l-19.8,11.5v-43.9l35.8-11.9c1.9-0.6,4-0.4,5.7,0.8l5.8,3.9
						c0.8,0.5,1.5,1.3,2,2.1l17.3,29C468,401.4,468.3,402.6,468.3,403.7L468.3,403.7z"/>
				</g>
				<g>
					<path class="st8" d="M442.4,358.6c0,7.5-10.6,21.9-15.2,27.8c-1,1.3-3,1.3-4.1,0c-4.6-5.9-15.2-20.3-15.2-27.8
						c0-9.5,7.7-17.2,17.2-17.2S442.4,349.1,442.4,358.6L442.4,358.6z"/>
					<circle class="st5" cx="425.2" cy="358.4" r="7.2"/>
				</g>
				<g>
					<path class="st8" d="M186.2,311.5c0,7.5-10.6,21.9-15.2,27.8c-1,1.3-3,1.3-4.1,0c-4.6-5.9-15.2-20.3-15.2-27.8
						c0-9.5,7.7-17.2,17.2-17.2S186.2,302,186.2,311.5z"/>
					<circle class="st5" cx="169" cy="311.4" r="7.2"/>
				</g>
				<g>
					<path class="st8" d="M284.2,410c0,7.5-10.6,21.9-15.2,27.8c-1,1.3-3,1.3-4.1,0c-4.6-5.9-15.2-20.3-15.2-27.8
						c0-9.5,7.7-17.2,17.2-17.2S284.2,400.5,284.2,410z"/>
					<circle class="st5" cx="267" cy="409.8" r="7.2"/>
				</g>
			</g>
			<path class="st9" d="M478.8,137.5h-1.7l5.3-5.3c2-2,2-5.1,0-7.1s-5.1-2-7.1,0l-5.3,5.3v-1.7c0-2.8-2.2-5-5-5s-5,2.2-5,5v13.8
				c0,2.8,2.2,5,5,5h13.8c2.8,0,5-2.2,5-5S481.6,137.5,478.8,137.5z"/>
			<g>
				<path class="st9" d="M406.7,497.4H405l5.3-5.3c2-2,2-5.1,0-7.1s-5.1-2-7.1,0l-5.3,5.3v-1.7c0-2.8-2.2-5-5-5s-5,2.2-5,5v13.8
					c0,2.8,2.2,5,5,5h13.8c2.8,0,5-2.2,5-5S409.5,497.4,406.7,497.4z"/>
				<path class="st9" d="M167.6,113.2c-2-2-5.1-2-7.1,0l-5.3,5.3v-1.7c0-2.8-2.2-5-5-5s-5,2.2-5,5v13.8c0,2.8,2.2,5,5,5H164
					c2.8,0,5-2.2,5-5c0-2.8-2.2-5-5-5h-1.7l5.3-5.3C169.5,118.3,169.5,115.1,167.6,113.2z"/>
			</g>
			<g>
				<path class="st8" d="M355.5,503.3h-13.8c-2.8,0-5,2.2-5,5s2.2,5,5,5h1.7l-5.3,5.3c-2,2-2,5.1,0,7.1c1,1,2.3,1.5,3.5,1.5
					s2.6-0.5,3.5-1.5l5.3-5.3v1.7c0,2.8,2.2,5,5,5s5-2.2,5-5v-13.8C360.5,505.5,358.3,503.3,355.5,503.3z"/>
				<path class="st8" d="M413.1,91h-13.8c-2.8,0-5,2.2-5,5c0,2.8,2.2,5,5,5h1.7l-5.3,5.3c-2,2-2,5.1,0,7.1c1,1,2.3,1.5,3.5,1.5
					s2.6-0.5,3.5-1.5l5.3-5.3v1.7c0,2.8,2.2,5,5,5s5-2.2,5-5V96C418.1,93.3,415.9,91,413.1,91z"/>
			</g>
		</g>
	</g>
</g>
<path class="st8" d="M240.7,152.1c0,0.1-0.1,0.1-0.1,0.2l-26.6-8.5v-0.2L240.7,152.1z"/>
<path class="st8" d="M492.6,364V184.9c0-2.2-1.4-4.1-3.5-4.8l-88.6-28.4l-6.1,2v0.2l-89,28.6c-0.5,0.1-1,0.2-1.5,0.2s-1,0-1.5-0.2
	l-65.9-21.2c0,0,0,0,0,0l-1.9-0.5l-28-9L118,180.3c-2.1,0.7-3.5,2.6-3.5,4.8v286.6c0,1.6,0.8,3.1,2.1,4c1.3,0.9,3,1.2,4.5,0.7l84-27
	c1-0.3,2.1-0.3,3.1,0l95.5,30.7l95.4-30.7c1-0.3,2.1-0.3,3.1,0l84,27c1.6,0.5,3.1,0.2,4.5-0.7c1.4-0.9,2.1-2.4,2.1-4v-71.2
	c0-2.8,2.2-5,5-5c2.8,0,5,2.2,5,5v71.2c0,4.8-2.3,9.2-6.2,12.1c-3.9,2.9-8.8,3.7-13.4,2.2l-82.5-26.5l-95.5,30.7
	c-0.5,0.1-1,0.2-1.5,0.2s-1,0-1.5-0.2l-95.5-30.7L124.2,486c-4.6,1.4-9.5,0.7-13.4-2.2c-4-2.8-6.2-7.3-6.2-12.1V185.1
	c0-6.6,4.2-12.3,10.4-14.3l90.1-28.9c1-0.3,2.1-0.3,3.1,0l5.8,1.9l26.6,8.5c0-0.1,0.1-0.1,0.1-0.2l0.1,0l63,20.3l90.5-29.1v0.2
	l4.8-1.5c1-0.3,2.1-0.3,3.1,0l90.1,28.9c6.2,2,10.4,7.8,10.4,14.3v179.1c0,2.8-2.2,5-5,5C495.1,369.2,492.8,366.9,492.6,364z"/>
<g>
	<g>
		<path class="st9" d="M370.6,186.7c0,29-41.3,85.3-59,108.1c-4,5.2-11.8,5.2-15.8,0c-17.7-22.8-59-79.1-59-108.1
			c0-37,30-66.9,66.9-66.9S370.6,149.8,370.6,186.7L370.6,186.7z"/>
	</g>
	<circle class="st5" cx="303.7" cy="186.3" r="27.9"/>
</g>
<path class="st8" d="M375.5,186.6c0,12.7-7.8,43.9-60.1,111.2c-2.8,3.7-7.2,5.8-11.8,5.8c-3.2,0-6.3-1-8.8-2.9
	c-0.4-0.3-0.8-0.6-1.2-1c-0.6-0.6-1.2-1.2-1.8-1.9c-5.8-7.6-14.7-19.4-23.8-32.7c-1.6-2.2-1-5.3,1.3-6.9c1.8-1.3,4.3-1.1,6,0.3
	c0.3,0.3,0.7,0.6,0.9,1c9,13.2,17.7,24.8,23.5,32.2c0.1,0.1,0.2,0.3,0.3,0.4c0.1,0.1,0.2,0.2,0.4,0.3c0.9,0.8,2,1.2,3.2,1.2
	c1.6,0,3-0.7,4-1.9c13.6-17.5,58-76.8,58-105c0-7.8-1.5-15.2-4.1-22.1c-1.2-3.2-2.7-6.3-4.4-9.2c-2-3.5-4.4-6.7-7.1-9.7
	c-0.2-0.2-0.4-0.5-0.6-0.7c-0.3-0.4-0.7-0.7-1-1.1c-0.3-0.4-0.7-0.7-1-1.1c-0.5-0.5-1-1-1.5-1.4c-0.3-0.3-0.7-0.6-1-1
	c-0.2-0.2-0.5-0.4-0.7-0.7c-0.8-0.7-1.7-1.4-2.6-2.1c-0.7-0.5-1.3-1-2-1.5c-0.3-0.2-0.6-0.4-1-0.7c-9.9-6.8-21.9-10.7-34.8-10.7
	c-22.7,0-42.5,12.3-53.3,30.5c-1.7,2.9-3.2,6-4.4,9.2c-2.7,6.9-4.2,14.4-4.2,22.3c0,9.5,5.3,24.2,15.5,42.5c1.4,2.4,0.5,5.5-1.9,6.8
	c-1.8,1.1-4.1,0.8-5.6-0.5c0,0-0.1-0.1-0.2-0.1c-0.4-0.4-0.8-0.8-1-1.3c-11.2-20-16.8-35.9-16.8-47.3c0-8.9,1.6-17.4,4.6-25.3
	c0,0,0-0.1,0.1-0.1c2.5-6,3.8-8.4,4.2-9h0c0,0,0-0.1,0-0.1c0,0,0-0.1,0-0.1c0,0,0,0,0,0c12.2-22.2,35.9-37.3,63-37.3
	c15.7,0,30.2,5,42,13.6c0.3,0.2,0.7,0.5,1,0.8c0.6,0.5,1.2,0.9,1.8,1.4c1.3,1,2.5,2.1,3.8,3.2c0.7,0.7,1.4,1.3,2.1,2
	c4.8,4.8,9,10.3,12.3,16.3c0,0,0,0.1,0.1,0.1c0,0,1.4,2,4,8.8c0,0,0,0.1,0,0.1c0,0.1,0.1,0.2,0.1,0.2v0c0,0,0,0,0,0.1
	C373.9,169.4,375.5,177.8,375.5,186.6z"/>
</svg>
