<?xml version="1.0" encoding="utf-8"?>
<!-- Generator: Adobe Illustrator 24.2.1, SVG Export Plug-In . SVG Version: 6.00 Build 0)  -->
<svg version="1.1" id="Layer_1" xmlns="http://www.w3.org/2000/svg" xmlns:xlink="http://www.w3.org/1999/xlink" x="0px" y="0px"
	 viewBox="0 0 800 1000" style="enable-background:new 0 0 800 1000;" xml:space="preserve">
<style type="text/css">
	.st0{fill:#CCCCCC;}
	.st1{display:none;fill:#999999;}
	.st2{display:none;fill:#514070;}
	.st3{display:none;opacity:0.72;fill:#514070;}
	.st4{display:none;fill:none;}
	.st5{fill:#F40000;}
	.st6{fill:#910000;}
	.st7{fill:#AFAFAF;}
	.st8{fill:#232323;}
	.st9{fill:#BF0000;}
	.st10{fill:#999999;}
	.st11{font-family:'Arboria-Bold';}
	.st12{font-size:12px;}
	.st13{fill:#666666;}
	.st14{fill:none;}
	.st15{fill:#4D4D4D;}
	.st16{font-size:18.3316px;}
	.st17{font-size:18px;}
	.st18{font-size:13.5011px;}
	.st19{font-family:'Arboria-Book';}
	.st20{font-family:'Montserrat-Regular';}
	.st21{fill:#FFFFFF;}
	.st22{fill:#D80000;}
	.st23{fill-rule:evenodd;clip-rule:evenodd;fill:#910000;}
	.st24{fill-rule:evenodd;clip-rule:evenodd;fill:#A80000;}
	.st25{fill-rule:evenodd;clip-rule:evenodd;fill:#BF0000;}
	.st26{fill-rule:evenodd;clip-rule:evenodd;fill:#F40000;}
	.st27{fill:#212121;}
</style>
<g>
	<rect x="385.5" y="24.9" class="st0" width="3" height="234.5"/>
</g>
<g>
	<rect x="60.3" y="527.6" class="st0" width="678.4" height="3"/>
</g>
<circle class="st1" cx="307.9" cy="100.3" r="24.5"/>
<ellipse transform="matrix(0.9239 -0.3827 0.3827 0.9239 -23.5938 82.7861)" class="st2" cx="196.3" cy="100.7" rx="24.5" ry="24.5"/>
<ellipse transform="matrix(0.9239 -0.3827 0.3827 0.9239 -23.5938 82.7861)" class="st3" cx="196.3" cy="100.7" rx="24.5" ry="24.5"/>
<circle class="st4" cx="195.9" cy="100.3" r="24.5"/>
<circle class="st5" cx="124.5" cy="349.5" r="34.8"/>
<circle class="st6" cx="400.6" cy="349.5" r="34.8"/>
<circle class="st7" cx="540.1" cy="349.5" r="34.8"/>
<circle class="st8" cx="674.5" cy="349.5" r="34.8"/>
<circle class="st9" cx="261.1" cy="348.6" r="34.8"/>
<text transform="matrix(1 0 0 1 60.2769 44.335)" class="st10 st11 st12">PRIMARY LOGO</text>
<text transform="matrix(1 0 0 1 427.775 44.335)" class="st10 st11 st12">SECONDARY LOGO</text>
<g>
	<rect x="60.3" y="271.9" class="st0" width="678.4" height="3"/>
</g>
<g>
	<text transform="matrix(1 0 0 1 101.0713 408.3455)"><tspan x="0" y="0" class="st13 st11 st12">STREAK</tspan><tspan x="-16.2" y="42" class="st13 st11 st12">0/100/100/0</tspan><tspan x="-2.3" y="63" class="st13 st11 st12">244/0/0</tspan><tspan x="-2.9" y="84" class="st13 st11 st12">#f40000</tspan></text>
</g>
<g>
	<text transform="matrix(1 0 0 1 249.1978 408.3456)"><tspan x="0" y="0" class="st13 st11 st12">RED</tspan><tspan x="-30.9" y="42" class="st13 st11 st12">17/100/100/9</tspan><tspan x="-12.5" y="63" class="st13 st11 st12">191/0/0</tspan><tspan x="-14.4" y="84" class="st13 st11 st12">#bf0000</tspan></text>
</g>
<g>
	<text transform="matrix(1 0 0 1 360.6436 408.3456)"><tspan x="0" y="0" class="st13 st11 st12">WINNING RED</tspan><tspan x="-8.2" y="42" class="st13 st11 st12">26/100/100/29</tspan><tspan x="14" y="63" class="st13 st11 st12">145/0/0</tspan><tspan x="12" y="84" class="st13 st11 st12">#910000</tspan></text>
</g>
<g>
	<text transform="matrix(1 0 0 1 513.4194 408.3458)"><tspan x="0" y="0" class="st13 st11 st12">SHADOW</tspan><tspan x="-9.5" y="42" class="st13 st11 st12">33/26/26/0</tspan><tspan x="-12.6" y="63" class="st13 st11 st12">175/175/175</tspan><tspan x="3.4" y="84" class="st13 st11 st12">#afafaf</tspan></text>
</g>
<g>
	<text transform="matrix(1 0 0 1 654.5972 408.3456)"><tspan x="0" y="0" class="st13 st11 st12">BLACK</tspan><tspan x="-19.6" y="42" class="st13 st11 st12">71/65/64/72</tspan><tspan x="-9.3" y="63" class="st13 st11 st12">35/35/35</tspan><tspan x="-7.4" y="84" class="st13 st11 st12">#232323</tspan></text>
</g>
<text transform="matrix(1 0 0 1 63.5438 296.6714)" class="st10 st11 st12">COLORS</text>
<text transform="matrix(1 0 0 1 63.5439 554.9557)" class="st10 st11 st12">FONTS</text>
<text transform="matrix(1 0 0 1 346.2567 554.9556)" class="st10 st11 st12">TAGLINES</text>
<g>
	<rect x="324.3" y="542.8" class="st0" width="3" height="435.3"/>
</g>
<g>
	<rect x="342.9" y="641" class="st0" width="395.8" height="3.1"/>
</g>
<text transform="matrix(1 0 0 1 346.2565 673.4574)" class="st10 st11 st12">ELEMENTS</text>
<text transform="matrix(1 0 0 1 393.6918 582.5889)" class="st15 st11 st16">“The Private, No Limit Sportsbook”</text>
<text transform="matrix(1 0 0 1 400.1259 611.4082)" class="st15 st11 st16">“BETTING ON THE BLOCKCHAIN”</text>
<text transform="matrix(1 0 0 1 63.4517 606.5686)" class="st15 st11 st17">HEADER:</text>
<text transform="matrix(1 0 0 1 173.6208 606.5687)" class="st15 st11 st17">Arboria Bold</text>
<text transform="matrix(1 0 0 1 63.5439 644.0853)"><tspan x="0" y="0" class="st15 st11 st18">ABCDEFGHIJKLMNOPQRSTUVWXYZ</tspan><tspan x="0" y="22" class="st15 st11 st18">abcdefghijklmnopqrstuvwxyz</tspan><tspan x="0" y="44" class="st15 st11 st18">0123456789</tspan></text>
<text transform="matrix(1 0 0 1 62.0619 738.9681)" class="st15 st11 st17">BODY:</text>
<text transform="matrix(1 0 0 1 137.7913 738.9683)" class="st15 st19 st17">GOTHAM Regular</text>
<text transform="matrix(1 0 0 1 63.5933 775.655)"><tspan x="0" y="0" class="st15 st19 st18">ABCDEFGHIJKLMNOPQRSTUVWXYZ</tspan><tspan x="0" y="18" class="st15 st19 st18">abcdefghijklmnopqrstuvwxyz</tspan><tspan x="0" y="36" class="st15 st19 st18">0123456789</tspan></text>
<text transform="matrix(1 0 0 1 69.7954 861.496)" class="st15 st20 st17">ALT:</text>
<text transform="matrix(1 0 0 1 122.5027 861.4961)" class="st15 st20 st17">Montserrat Regular</text>
<text transform="matrix(1 0 0 1 62.174 898.1829)"><tspan x="0" y="0" class="st15 st20 st18">ABCDEFGHIJKLMNOPQRSTUVWXYZ</tspan><tspan x="0" y="18" class="st15 st20 st18">abcdefghijklmnopqrstuvwxyz</tspan><tspan x="0" y="36" class="st15 st20 st18">0123456789</tspan></text>
<path class="st8" d="M353.4,236.1c-81.5,2.6-163,5.1-244.5,7.7c-5.2,0.2-10-2.4-12.9-6.6c-5.7-8.4-11.6-18.2-17.1-29.3
	c-5.8-11.7-10.1-22.9-13.4-33.1c-3-9.5,3.9-19.2,13.8-19.5c37.4-1.3,77.6-1.2,120.1,0.8c56.4,2.6,108.6,8.2,155.8,15.4
	c7.3,1.1,12.7,7.4,12.7,14.8v35C367.9,229.2,361.5,235.9,353.4,236.1z"/>
<path class="st8" d="M751.7,201.2c0.4,5.2-2.7,10-7.5,11.3c-3.9,1.1-7.8,2.2-11.9,3.2c-54.5,13.5-105.2,11.2-147.7,3.2
	c-4.2-0.8-7.5-4.4-8.2-8.9c-2.8-18.1-3.7-33.6-3.8-45.4c-0.1-11.7-0.2-24.3,2.5-40.4c2.9-17.1,7.8-32,13.3-44.4c1.6-3.6,5-6,8.8-6.2
	c21.9-0.9,50.3,0.4,82.4,8.4c22.7,5.7,42.1,13.4,57.8,21c2.9,1.4,5,4.2,5.7,7.5c3.5,17.7,5,32,5.7,42.3c0.4,6.5,0.6,11.5,1.3,24.2
	C750.6,186.4,751.2,194.6,751.7,201.2z"/>
<path class="st8" d="M537.9,701c-1.1-9.1-9-15.8-18.1-15.6c-30.7,0.8-100.5,4.4-139.9,20.9c-43.9,18.4-7.4,176.3,4.3,222.4
	c1.9,7.5,8.4,12.9,16.2,13.4l106.9,6.6c9.4,0.6,17.7-6.3,18.8-15.7C531.5,887.4,545.3,759.9,537.9,701z"/>
<g>
	<polygon class="st21" points="453.3,860.6 452.7,862.6 445.4,884.4 441.8,895.3 433.5,895.3 426.6,875.5 419.7,895.3 411.4,895.3 
		399.9,860.6 410,860.6 416,880.5 422.6,860.5 430.8,860.5 437.5,880.5 443.5,860.6 	"/>
	<path class="st21" d="M480.2,875v15.6c-0.2,0.2-0.5,0.4-0.7,0.5c-0.5,0.3-0.9,0.7-1.4,1c-1,0.7-2.2,1.3-3.4,1.8
		c-0.3,0.1-0.6,0.3-0.9,0.4c-0.6,0.3-1.3,0.5-1.9,0.7c-2,0.6-4.2,0.9-6.5,0.9c-1.3,0-2.6-0.1-3.9-0.3c-0.6-0.1-1.2-0.3-1.8-0.4
		c-0.3-0.1-0.6-0.2-0.9-0.3c-0.3-0.1-0.6-0.2-0.9-0.3c-0.3-0.1-0.6-0.2-0.8-0.3c-0.6-0.2-1.1-0.5-1.6-0.8c-0.5-0.3-1-0.6-1.5-0.9
		c-0.7-0.5-1.4-1-2-1.6c-1.7-1.6-3-3.5-3.9-5.6c-0.1-0.2-0.2-0.5-0.3-0.7v0l7.2-21.8c0.1-0.1,0.2-0.1,0.3-0.2c0.5-0.3,1-0.6,1.6-0.8
		c0.3-0.1,0.6-0.2,0.8-0.4c2.3-0.9,4.7-1.4,7.4-1.4c2.3,0,4.3,0.3,6.2,0.7c0.6,0.2,1.2,0.4,1.7,0.6c0.3,0.1,0.6,0.2,0.8,0.4
		c0.3,0.1,0.5,0.3,0.8,0.4c0.3,0.1,0.5,0.3,0.8,0.4c0.3,0.2,0.6,0.3,0.8,0.5c0.3,0.2,0.6,0.4,0.9,0.6c0,0,0.1,0.1,0.1,0.1
		c0.4,0.3,0.8,0.6,1.2,0.9c0.1,0.1,0.2,0.2,0.3,0.2c0.1,0.1,0.2,0.1,0.3,0.2l-5.6,6.7c-0.3-0.3-0.6-0.5-0.9-0.7
		c-0.5-0.4-1.1-0.7-1.6-1c-0.3-0.2-0.5-0.3-0.8-0.4c-0.2-0.1-0.3-0.2-0.5-0.2c-1.3-0.6-2.8-0.8-4.5-0.8c-1.2,0-2.4,0.3-3.5,0.7
		c-0.8,0.4-1.5,0.8-2.2,1.4c-0.1,0.1-0.2,0.2-0.3,0.3c-0.1,0.1-0.2,0.2-0.3,0.3c-0.8,0.9-1.4,1.8-1.9,3c-0.5,1.2-0.7,2.4-0.7,3.7
		v0.1c0,1.4,0.2,2.6,0.7,3.8c0.5,1.2,1.1,2.2,2,3c0.6,0.6,1.3,1.2,2.1,1.6c0.3,0.1,0.5,0.3,0.8,0.4c0.6,0.2,1.2,0.4,1.8,0.5
		c0.6,0.1,1.3,0.2,2,0.2c0.8,0,1.6-0.1,2.4-0.2c0.7-0.1,1.4-0.3,2-0.6c0.4-0.2,0.8-0.4,1.2-0.6V882h-6.8v-7H480.2z"/>
	<path class="st21" d="M479.9,867.9l-0.2,0.3l-0.1,0.1l-3,3.6h6.2v23.9h6.6v-10.4h4.2l6.9,10.4h11l-8.2-12c2.2-0.9,3.9-2.2,5.2-4
		c1.3-1.7,1.9-3.9,1.9-6.6v-0.1c0-3.4-1-6-3-8c-1.1-1.2-2.6-2.1-4.5-2.8c-1.8-0.6-4.1-1-6.7-1h-10.8l-3.8,4.5l-1.4,1.7L479.9,867.9z
		 M500.9,873.8c0,1.2-0.4,2.2-1.3,3c-0.9,0.7-2.1,1.1-3.8,1.1h-6.3v-8.3h6.2c1.6,0,2.9,0.3,3.8,1c0.9,0.7,1.4,1.7,1.4,3.1V873.8z"/>
</g>
<g>
	<polygon class="st22" points="612.5,861.6 611.8,863.7 604.6,885.4 601,896.3 592.7,896.3 585.8,876.5 578.9,896.3 570.6,896.3 
		559.1,861.6 569.2,861.6 575.2,881.6 581.8,861.5 590,861.5 596.6,881.6 602.6,861.6 	"/>
	<path class="st22" d="M639.3,876v15.5c-0.2,0.2-0.5,0.4-0.7,0.5c-0.5,0.3-0.9,0.7-1.4,1c-1,0.7-2.2,1.3-3.4,1.8
		c-0.3,0.1-0.6,0.3-0.9,0.4c-0.6,0.3-1.3,0.5-1.9,0.7c-2,0.6-4.2,0.9-6.5,0.9c-1.3,0-2.6-0.1-3.9-0.3c-0.6-0.1-1.2-0.3-1.8-0.4
		c-0.3-0.1-0.6-0.2-0.9-0.3s-0.6-0.2-0.9-0.3c-0.3-0.1-0.6-0.2-0.8-0.3c-0.6-0.2-1.1-0.5-1.6-0.8c-0.5-0.3-1-0.6-1.5-0.9
		c-0.7-0.5-1.4-1-2-1.6c-1.7-1.6-3-3.5-3.9-5.6c-0.1-0.2-0.2-0.5-0.3-0.7v0l7.2-21.7c0.1-0.1,0.2-0.1,0.3-0.2c0.5-0.3,1-0.6,1.6-0.8
		c0.3-0.1,0.6-0.2,0.8-0.4c2.3-0.9,4.7-1.4,7.4-1.4c2.3,0,4.3,0.3,6.1,0.7c0.6,0.2,1.2,0.4,1.7,0.6c0.3,0.1,0.6,0.2,0.8,0.4
		c0.3,0.1,0.5,0.3,0.8,0.4c0.3,0.1,0.5,0.3,0.8,0.4c0.3,0.2,0.6,0.3,0.8,0.5c0.3,0.2,0.6,0.4,0.9,0.6c0,0,0.1,0.1,0.1,0.1
		c0.4,0.3,0.8,0.6,1.2,0.9c0.1,0.1,0.2,0.2,0.3,0.2c0.1,0.1,0.2,0.1,0.3,0.2l-5.6,6.7c-0.3-0.3-0.6-0.5-0.9-0.7
		c-0.5-0.4-1.1-0.7-1.6-1c-0.3-0.2-0.5-0.3-0.8-0.4c-0.2-0.1-0.3-0.2-0.5-0.2c-1.3-0.6-2.8-0.8-4.5-0.8c-1.2,0-2.4,0.3-3.5,0.7
		c-0.8,0.4-1.5,0.8-2.2,1.4c-0.1,0.1-0.2,0.2-0.3,0.3c-0.1,0.1-0.2,0.2-0.3,0.3c-0.8,0.9-1.4,1.8-1.9,3c-0.5,1.2-0.7,2.4-0.7,3.7
		v0.1c0,1.4,0.2,2.6,0.7,3.8c0.5,1.2,1.1,2.2,2,3c0.6,0.6,1.3,1.2,2.1,1.6c0.3,0.1,0.5,0.3,0.8,0.4c0.6,0.2,1.2,0.4,1.8,0.5
		c0.6,0.1,1.3,0.2,2,0.2c0.8,0,1.6-0.1,2.3-0.2c0.7-0.1,1.4-0.3,2-0.6c0.4-0.2,0.8-0.4,1.2-0.6V883h-6.8v-7H639.3z"/>
	<path class="st22" d="M639.1,868.9l-0.2,0.3l-0.1,0.1l-3,3.6h6.2v23.9h6.6v-10.4h4.2l6.9,10.4h11l-8.2-12c2.2-0.9,3.9-2.2,5.2-4
		c1.3-1.7,1.9-3.9,1.9-6.6v-0.1c0-3.4-1-6-3-8c-1.1-1.2-2.6-2.1-4.5-2.8c-1.8-0.6-4.1-1-6.7-1h-10.8l-3.8,4.5l-1.4,1.7L639.1,868.9z
		 M660,874.9c0,1.2-0.4,2.2-1.3,3c-0.9,0.7-2.1,1.1-3.8,1.1h-6.3v-8.3h6.2c1.6,0,2.9,0.3,3.8,1c0.9,0.7,1.4,1.7,1.4,3.1V874.9z"/>
</g>
<g>
	<polygon class="st23" points="590.4,750.7 601.1,750.7 612.5,773.9 601.8,773.9 	"/>
	<polygon class="st24" points="612.3,744.7 623,744.7 612.5,773.9 601.8,773.9 	"/>
	<polygon class="st25" points="612.3,744.7 623,744.7 635.2,773.9 624.5,773.9 	"/>
	<polygon class="st26" points="635.2,773.9 624.5,773.9 637,738.3 647.7,738.3 	"/>
	<path class="st27" d="M618.6,804.5c-26.8,0-48.7-21.8-48.7-48.7c0-26.8,21.8-48.7,48.7-48.7c26.8,0,48.7,21.8,48.7,48.7
		C667.3,782.7,645.4,804.5,618.6,804.5z M618.6,716.2c-21.9,0-39.6,17.8-39.6,39.6c0,21.9,17.8,39.6,39.6,39.6
		c21.9,0,39.6-17.8,39.6-39.6C658.3,734,640.5,716.2,618.6,716.2z"/>
</g>
<g>
	<polygon class="st23" points="422.8,752.6 433.6,752.6 445.2,776.2 434.3,776.2 	"/>
	<polygon class="st24" points="445,746.5 455.9,746.5 445.2,776.2 434.3,776.2 	"/>
	<polygon class="st25" points="445,746.5 455.9,746.5 468.2,776.2 457.4,776.2 	"/>
	<polygon class="st26" points="468.2,776.2 457.4,776.2 470.1,740 480.9,740 	"/>
	<path class="st21" d="M451.4,807.1c-27.2,0-49.3-22.1-49.3-49.3c0-27.2,22.1-49.3,49.3-49.3s49.3,22.1,49.3,49.3
		C500.7,785,478.6,807.1,451.4,807.1z M451.4,717.6c-22.1,0-40.2,18-40.2,40.2s18,40.2,40.2,40.2c22.1,0,40.2-18,40.2-40.2
		C491.6,735.7,473.5,717.6,451.4,717.6z"/>
</g>
<polygon class="st23" points="115.1,197.2 121.9,197.2 129.2,212 122.3,212 "/>
<polygon class="st24" points="129.1,193.4 135.8,193.4 129.2,212 122.3,212 "/>
<polygon class="st25" points="129.1,193.4 135.8,193.4 143.6,212 136.8,212 "/>
<polygon class="st26" points="143.6,212 136.8,212 144.7,189.4 151.5,189.4 "/>
<path class="st21" d="M133,231.4c-17,0-30.9-13.9-30.9-30.9s13.9-30.9,30.9-30.9s30.9,13.9,30.9,30.9S150.1,231.4,133,231.4z
	 M133,175.3c-13.9,0-25.1,11.3-25.1,25.1c0,13.9,11.3,25.1,25.1,25.1c13.9,0,25.1-11.3,25.1-25.1C158.2,186.6,146.9,175.3,133,175.3
	z"/>
<g>
	<path class="st21" d="M211.1,187.3l-7.8,24.4h-6.8l-4.8-10.9l-4.7,10.9h-6.8l-7.9-24.4h8.8l3.7,12.8l5.8-12.7h2.3l6.1,12.9
		l3.6-12.9L211.1,187.3L211.1,187.3z"/>
	<path class="st21" d="M239.2,187.3v24.4h-6.5L232,210c-2,1.6-4.5,2.6-7.4,2.6c-7.5,0-12.8-5.4-12.8-13c0-7.6,5.3-12.9,12.8-12.9
		c2.9,0,5.4,0.9,7.5,2.6l0.8-1.9H239.2z M231.2,199.5c0-3.2-2.3-5.5-5.5-5.5c-3.2,0-5.5,2.4-5.5,5.5c0,3.2,2.3,5.6,5.5,5.6
		C228.9,205.1,231.2,202.7,231.2,199.5z"/>
	<path class="st21" d="M269.8,187.3V209c0,7.7-5,12.4-13.1,12.4c-6.9,0-11.8-3.5-12.9-9.3h8.1c0.6,1.6,2.7,2.5,4.7,2.5
		c2.8,0,5.1-1.8,5.1-4.7v-0.7c-1.8,1.1-4,1.8-6.4,1.8c-7,0-12.2-5.2-12.2-12.3c0-6.9,5.2-12.3,12.2-12.3c3,0,5.6,1,7.7,2.8l1-2
		L269.8,187.3z M256.7,204.2c3,0,5.2-2.2,5.2-5.4c0-3.1-2.2-5.3-5.2-5.3c-3,0-5.2,2.2-5.2,5.3C251.5,201.9,253.6,204.2,256.7,204.2
		L256.7,204.2z"/>
	<path class="st21" d="M300.2,199.3c0,0.7-0.1,1.5-0.2,2.2h-18.1c0.6,2.8,2.3,4.2,5,4.2c2,0,3.6-0.8,4.4-2.3h8.3
		c-1.7,5.6-6.7,9.1-12.8,9.1c-7.6,0-13.2-5.6-13.2-13c0-7.5,5.6-13,13.2-13C294.7,186.5,300.2,192.1,300.2,199.3L300.2,199.3z
		 M282.1,196.9h9.9c-0.7-2.5-2.5-3.8-5.1-3.8C284.5,193.1,282.7,194.5,282.1,196.9z"/>
	<path class="st21" d="M319.9,187.2v7.7h-3.3c-3,0-4.2,1.3-4.2,4.4v12.4H304v-24.5h5.6l1.3,2.7c1.7-2,3.8-2.8,6.7-2.8H319.9z"/>
	<path class="st5" d="M339,187.2v7.7h-3.3c-3,0-4.2,1.3-4.2,4.4v12.4h-8.4v-24.5h5.6l1.3,2.7c1.7-2,3.8-2.8,6.7-2.8H339z"/>
</g>
<polygon class="st23" points="109.7,100.2 116.6,100.2 123.9,115.1 117,115.1 "/>
<polygon class="st24" points="123.8,96.4 130.6,96.4 123.9,115.1 117,115.1 "/>
<polygon class="st25" points="123.8,96.4 130.6,96.4 138.4,115.1 131.5,115.1 "/>
<polygon class="st26" points="138.4,115.1 131.5,115.1 139.6,92.3 146.4,92.3 "/>
<path class="st27" d="M127.8,134.6c-17.2,0-31.1-14-31.1-31.1s14-31.2,31.1-31.2s31.1,14,31.1,31.1S144.9,134.6,127.8,134.6z
	 M127.8,78.1c-14,0-25.3,11.4-25.3,25.3s11.4,25.3,25.3,25.3s25.3-11.4,25.3-25.3C153.1,89.5,141.7,78.1,127.8,78.1z"/>
<g>
	<path class="st27" d="M206.5,90.2l-7.8,24.6h-6.8l-4.9-11l-4.8,11h-6.8l-8-24.6h8.9l3.7,12.9l5.8-12.8h2.3l6.2,13l3.7-13
		L206.5,90.2L206.5,90.2z"/>
	<path class="st27" d="M234.9,90.2v24.6h-6.6l-0.7-1.7c-2,1.6-4.6,2.6-7.4,2.6c-7.5,0-12.9-5.5-12.9-13.1c0-7.6,5.4-13,12.9-13
		c2.9,0,5.5,0.9,7.5,2.6l0.8-1.9H234.9z M226.8,102.5c0-3.2-2.3-5.6-5.5-5.6c-3.2,0-5.5,2.4-5.5,5.6c0,3.2,2.3,5.6,5.5,5.6
		C224.4,108.1,226.8,105.7,226.8,102.5z"/>
	<path class="st27" d="M265.7,90.2v21.9c0,7.7-5,12.5-13.2,12.5c-7,0-11.9-3.5-13-9.4h8.2c0.6,1.6,2.7,2.5,4.7,2.5
		c2.8,0,5.1-1.8,5.1-4.7v-0.7c-1.8,1.2-4,1.8-6.4,1.8c-7,0-12.3-5.3-12.3-12.4c0-7,5.3-12.4,12.3-12.4c3,0,5.7,1.1,7.8,2.8l1.1-2.1
		L265.7,90.2z M252.5,107.2c3,0,5.3-2.3,5.3-5.4c0-3.1-2.2-5.4-5.3-5.4s-5.3,2.3-5.3,5.4C247.2,104.9,249.4,107.2,252.5,107.2
		L252.5,107.2z"/>
	<path class="st27" d="M296.4,102.3c0,0.7-0.1,1.5-0.2,2.3h-18.3c0.6,2.8,2.4,4.3,5,4.3c2,0,3.6-0.8,4.5-2.3h8.4
		c-1.7,5.6-6.7,9.1-12.9,9.1c-7.7,0-13.4-5.6-13.4-13.1c0-7.6,5.6-13.1,13.4-13.1C290.8,89.4,296.4,95.1,296.4,102.3L296.4,102.3z
		 M278.1,99.8h9.9c-0.7-2.5-2.5-3.8-5.1-3.8C280.5,96.1,278.8,97.4,278.1,99.8z"/>
	<path class="st27" d="M316.2,90.1v7.8h-3.3c-3,0-4.3,1.3-4.3,4.5v12.5h-8.5V90.2h5.7l1.3,2.7c1.7-2,3.8-2.8,6.8-2.8H316.2z"/>
	<path class="st5" d="M335.5,90.1v7.8h-3.3c-3,0-4.3,1.3-4.3,4.5v12.5h-8.5V90.2h5.7l1.3,2.7c1.7-2,3.8-2.8,6.8-2.8H335.5z"/>
</g>
<g>
	<path class="st27" d="M456.7,183.9l-5.5,17.4h-4.8l-3.5-7.8l-3.4,7.8h-4.8l-5.6-17.4h6.3l2.6,9.1l4.1-9.1h1.6l4.3,9.2l2.6-9.2
		L456.7,183.9L456.7,183.9z"/>
	<path class="st27" d="M476.7,183.9v17.4h-4.6l-0.5-1.2c-1.4,1.2-3.2,1.8-5.2,1.8c-5.3,0-9.1-3.9-9.1-9.3c0-5.4,3.8-9.2,9.1-9.2
		c2,0,3.9,0.7,5.3,1.9l0.6-1.3H476.7z M471,192.6c0-2.3-1.6-3.9-3.9-3.9s-3.9,1.7-3.9,3.9c0,2.3,1.6,4,3.9,4S471,194.9,471,192.6z"
		/>
	<path class="st27" d="M498.5,183.9v15.4c0,5.5-3.6,8.8-9.3,8.8c-4.9,0-8.4-2.5-9.2-6.6h5.8c0.4,1.2,1.9,1.8,3.3,1.8
		c2,0,3.6-1.3,3.6-3.3v-0.5c-1.3,0.8-2.9,1.3-4.5,1.3c-5,0-8.7-3.7-8.7-8.7c0-4.9,3.7-8.7,8.7-8.7c2.1,0,4,0.7,5.5,2l0.7-1.4H498.5z
		 M489.2,195.9c2.2,0,3.7-1.6,3.7-3.8c0-2.2-1.6-3.8-3.7-3.8c-2.2,0-3.7,1.6-3.7,3.8C485.5,194.3,487,195.9,489.2,195.9L489.2,195.9
		z"/>
	<path class="st27" d="M520.2,192.4c0,0.5,0,1-0.1,1.6h-12.9c0.4,2,1.7,3,3.6,3c1.4,0,2.6-0.6,3.2-1.6h5.9c-1.2,4-4.8,6.5-9.1,6.5
		c-5.4,0-9.4-4-9.4-9.3c0-5.3,4-9.2,9.4-9.2C516.3,183.4,520.2,187.3,520.2,192.4L520.2,192.4z M507.3,190.7h7
		c-0.5-1.7-1.8-2.7-3.6-2.7C509,188,507.7,189,507.3,190.7z"/>
	<path class="st27" d="M534.2,183.8v5.5h-2.3c-2.1,0-3,0.9-3,3.2v8.8h-6v-17.4h4l0.9,1.9c1.2-1.4,2.7-2,4.8-2H534.2z"/>
	<path class="st5" d="M547.8,183.8v5.5h-2.3c-2.1,0-3,0.9-3,3.2v8.8h-6v-17.4h4l0.9,1.9c1.2-1.4,2.7-2,4.8-2H547.8z"/>
</g>
<g>
	<polygon class="st23" points="466,132.3 474.2,132.3 483,150.1 474.8,150.1 	"/>
	<polygon class="st24" points="482.9,127.7 491.1,127.7 483,150.1 474.8,150.1 	"/>
	<polygon class="st25" points="482.9,127.7 491.1,127.7 500.5,150.1 492.3,150.1 	"/>
	<polygon class="st26" points="500.5,150.1 492.3,150.1 501.9,122.7 510,122.7 	"/>
	<path class="st27" d="M487.7,173.6c-20.6,0-37.4-16.8-37.4-37.4s16.8-37.4,37.4-37.4c20.6,0,37.4,16.8,37.4,37.4
		S508.3,173.6,487.7,173.6z M487.7,105.7c-16.8,0-30.4,13.7-30.4,30.5s13.7,30.4,30.4,30.4c16.8,0,30.4-13.7,30.4-30.4
		C518.2,119.4,504.5,105.7,487.7,105.7z"/>
</g>
<g>
	<path class="st21" d="M630.4,182.1l-5.5,17.4H620l-3.5-7.8l-3.4,7.8h-4.8l-5.6-17.4h6.3l2.6,9.1l4.1-9.1h1.6l4.3,9.2l2.6-9.2
		L630.4,182.1L630.4,182.1z"/>
	<path class="st21" d="M650.4,182.1v17.4h-4.6l-0.5-1.2c-1.4,1.2-3.2,1.8-5.2,1.8c-5.3,0-9.1-3.9-9.1-9.3c0-5.4,3.8-9.2,9.1-9.2
		c2,0,3.9,0.7,5.3,1.9l0.6-1.3H650.4z M644.7,190.8c0-2.3-1.6-3.9-3.9-3.9s-3.9,1.7-3.9,3.9c0,2.3,1.6,4,3.9,4
		S644.7,193.1,644.7,190.8z"/>
	<path class="st21" d="M672.2,182.1v15.4c0,5.5-3.6,8.8-9.3,8.8c-4.9,0-8.4-2.5-9.2-6.6h5.8c0.4,1.2,1.9,1.8,3.3,1.8
		c2,0,3.6-1.3,3.6-3.3v-0.5c-1.3,0.8-2.9,1.3-4.5,1.3c-5,0-8.7-3.7-8.7-8.7c0-4.9,3.7-8.7,8.7-8.7c2.1,0,4,0.7,5.5,2l0.7-1.4H672.2z
		 M662.8,194.1c2.2,0,3.7-1.6,3.7-3.8c0-2.2-1.6-3.8-3.7-3.8c-2.2,0-3.7,1.6-3.7,3.8C659.1,192.5,660.7,194.1,662.8,194.1
		L662.8,194.1z"/>
	<path class="st21" d="M693.8,190.6c0,0.5,0,1-0.1,1.6h-12.9c0.4,2,1.7,3,3.6,3c1.4,0,2.6-0.6,3.2-1.6h5.9c-1.2,4-4.8,6.5-9.1,6.5
		c-5.4,0-9.4-4-9.4-9.3c0-5.3,4-9.2,9.4-9.2C689.9,181.5,693.8,185.5,693.8,190.6L693.8,190.6z M680.9,188.9h7
		c-0.5-1.7-1.8-2.7-3.6-2.7C682.6,186.2,681.4,187.2,680.9,188.9z"/>
	<path class="st21" d="M707.9,182v5.5h-2.3c-2.1,0-3,0.9-3,3.2v8.8h-6v-17.4h4l0.9,1.9c1.2-1.4,2.7-2,4.8-2H707.9z"/>
	<path class="st5" d="M721.4,182v5.5h-2.3c-2.1,0-3,0.9-3,3.2v8.8h-6v-17.4h4l0.9,1.9c1.2-1.4,2.7-2,4.8-2H721.4z"/>
</g>
<g>
	<polygon class="st23" points="639.7,130.5 647.9,130.5 656.7,148.3 648.4,148.3 	"/>
	<polygon class="st24" points="656.5,125.8 664.7,125.8 656.7,148.3 648.4,148.3 	"/>
	<polygon class="st25" points="656.5,125.8 664.7,125.8 674.1,148.3 665.9,148.3 	"/>
	<polygon class="st26" points="674.1,148.3 665.9,148.3 675.5,120.9 683.7,120.9 	"/>
	<path class="st21" d="M661.4,171.8c-20.6,0-37.4-16.8-37.4-37.4S640.7,97,661.4,97c20.6,0,37.4,16.8,37.4,37.4
		S682,171.8,661.4,171.8z M661.4,103.9c-16.8,0-30.4,13.7-30.4,30.5s13.7,30.4,30.4,30.4c16.8,0,30.4-13.7,30.4-30.4
		C691.8,117.6,678.2,103.9,661.4,103.9z"/>
</g>
</svg>
